<?xml version="1.0" encoding="UTF-8" standalone="no"?>
<svg width="48px" height="46px" viewBox="0 0 48 46" version="1.1" xmlns="http://www.w3.org/2000/svg" xmlns:xlink="http://www.w3.org/1999/xlink" xmlns:sketch="http://www.bohemiancoding.com/sketch/ns">
    <!-- Generator: Sketch 3.1 (8751) - http://www.bohemiancoding.com/sketch -->
    <title>Bananas</title>
    <desc>Created with Sketch.</desc>
    <defs></defs>
    <g id="Welcome" stroke="none" stroke-width="1" fill="none" fill-rule="evenodd" sketch:type="MSPage">
        <g id="Desktop-HD" sketch:type="MSArtboardGroup" transform="translate(-1238.000000, -1781.000000)">
            <g id="Site-2" sketch:type="MSLayerGroup" transform="translate(1154.637631, 756.325433)">
                <g id="Bananas" transform="translate(112.776608, 1050.617474) rotate(325.000000) translate(-112.776608, -1050.617474) translate(81.276608, 1028.617474)" sketch:type="MSShapeGroup">
                    <g id="layer1" transform="translate(-0.033955, -0.230365)">
                        <path d="M39.7269171,5.03085157 C39.7269171,5.03085157 38.0312561,6.68895499 38.4774827,8.2597898 C38.9237093,9.83062461 40.4408797,13.670443 34.8184246,18.0338731 C29.1959696,22.3973031 12.8640763,29.9896714 1.88690216,21.6991543 C-1.23668398,18.2084103 0.548222388,15.9394267 0.548222388,15.9394267 C0.548222388,15.9394267 2.33197303,15.6871916 3.0470913,15.7648895 C3.93954448,15.5030837 8.13407444,15.7648895 12.0608684,15.9394267 C17.3183458,15.8383853 31.6948385,9.30701301 34.4614433,6.77622359 C34.4614433,6.77622359 37.8527654,2.76186795 37.9420108,2.06371914 C38.0312561,1.36557034 40.3516343,3.46001676 40.4408797,4.07089696 C40.530125,4.68177717 39.7269171,4.94358297 39.7269171,5.03085157 L39.7269171,5.03085157 Z" id="path1933" fill="#FFED00"></path>
                        <path d="M39.8456848,0.0371214447 C39.3325242,-0.0937814565 37.5469476,1.28540104 37.5783887,1.74713222 C37.6097879,2.20824904 39.3156452,3.70336263 40.3962516,4.06445392 C40.7532329,4.15172252 42.7166299,3.97718532 42.8058752,3.62811092 C42.8951206,3.27903651 42.8951206,1.7954703 42.5381393,1.4463959 C42.181158,1.0973215 40.442802,0.189440933 39.8456848,0.0371214447 L39.8456848,0.0371214447 Z" id="path23294" fill="#353200"></path>
                    </g>
                    <g id="layer1-2" transform="translate(37.849086, 23.741163) rotate(-25.000000) translate(-37.849086, -23.741163) translate(16.349086, 11.241163)">
                        <path d="M39.7269171,5.03085157 C39.7269171,5.03085157 38.0312561,6.68895499 38.4774827,8.2597898 C38.9237093,9.83062461 40.4408797,13.670443 34.8184246,18.0338731 C29.1959696,22.3973031 12.8640763,29.9896714 1.88690216,21.6991543 C-1.23668398,18.2084103 0.548222388,15.9394267 0.548222388,15.9394267 C0.548222388,15.9394267 2.33197303,15.6871916 3.0470913,15.7648895 C3.93954448,15.5030837 8.13407444,15.7648895 12.0608684,15.9394267 C17.3183458,15.8383853 31.6948385,9.30701301 34.4614433,6.77622359 C34.4614433,6.77622359 37.8527654,2.76186795 37.9420108,2.06371914 C38.0312561,1.36557034 40.3516343,3.46001676 40.4408797,4.07089696 C40.530125,4.68177717 39.7269171,4.94358297 39.7269171,5.03085157 L39.7269171,5.03085157 Z" id="path1933" fill="#FFED00"></path>
                        <path d="M39.8456848,0.0371214447 C39.3325242,-0.0937814565 37.5469476,1.28540104 37.5783887,1.74713222 C37.6097879,2.20824904 39.3156452,3.70336263 40.3962516,4.06445392 C40.7532329,4.15172252 42.7166299,3.97718532 42.8058752,3.62811092 C42.8951206,3.27903651 42.8951206,1.7954703 42.5381393,1.4463959 C42.181158,1.0973215 40.442802,0.189440933 39.8456848,0.0371214447 L39.8456848,0.0371214447 Z" id="path23294" fill="#353200"></path>
                    </g>
                </g>
            </g>
        </g>
    </g>
</svg>