<?xml version="1.0" encoding="UTF-8" standalone="no"?>
<svg width="45px" height="45px" viewBox="0 0 45 45" version="1.1" xmlns="http://www.w3.org/2000/svg" xmlns:xlink="http://www.w3.org/1999/xlink" xmlns:sketch="http://www.bohemiancoding.com/sketch/ns">
    <!-- Generator: Sketch 3.1 (8751) - http://www.bohemiancoding.com/sketch -->
    <title>Fill 253</title>
    <desc>Created with Sketch.</desc>
    <defs></defs>
    <g id="Welcome" stroke="none" stroke-width="1" fill="none" fill-rule="evenodd" sketch:type="MSPage">
        <g id="Desktop-HD" sketch:type="MSArtboardGroup" transform="translate(-1394.000000, -1323.000000)" fill="#FFFFFF">
            <g id="Site-2" sketch:type="MSLayerGroup" transform="translate(1154.637631, 756.325433)">
                <path d="M278.5,567 L245.5,567 C242.476279,567 240,569.471163 240,572.5 L240,605.5 C240,608.523721 242.476279,611 245.5,611 L262.189302,611 L262.189302,595.221395 L256.919535,595.221395 L256.919535,588.350233 L262.189302,588.350233 L262.189302,584.906977 C262.189302,579.596279 266.108372,575.44186 271.112093,575.44186 L275.967442,575.44186 L275.967442,583.19814 L271.623721,583.19814 C270.487907,583.19814 270.155349,583.853023 270.155349,584.753488 L270.155349,588.350233 L275.967442,588.350233 L275.967442,595.221395 L270.155349,595.221395 L270.155349,611 L278.5,611 C281.523721,611 284,608.523721 284,605.5 L284,572.5 C284,569.471163 281.523721,567 278.5,567" id="Fill-253" sketch:type="MSShapeGroup"></path>
            </g>
        </g>
    </g>
</svg>