<?xml version="1.0" encoding="UTF-8" standalone="no"?>
<svg width="69px" height="31px" viewBox="0 0 69 31" version="1.1" xmlns="http://www.w3.org/2000/svg" xmlns:xlink="http://www.w3.org/1999/xlink" xmlns:sketch="http://www.bohemiancoding.com/sketch/ns">
    <!-- Generator: Sketch 3.1 (8751) - http://www.bohemiancoding.com/sketch -->
    <title>Fill 1</title>
    <desc>Created with Sketch.</desc>
    <defs></defs>
    <g id="Welcome" stroke="none" stroke-width="1" fill="none" fill-rule="evenodd" sketch:type="MSPage">
        <g id="Desktop-HD" sketch:type="MSArtboardGroup" transform="translate(-1682.000000, -1411.000000)" fill="#2C5300">
            <g id="Site-2" sketch:type="MSLayerGroup" transform="translate(1154.637631, 756.325433)">
                <path d="M580.390017,661.764939 C580.744324,658.93023 583.933592,658.044336 590.488905,656.272548 C589.010571,656.004995 587.596108,655.758564 586.239984,655.531747 C551.680568,649.749171 555.876682,656.934643 549.739548,664.776928 C548.853654,663.714006 549.562268,663.18242 549.739548,661.233604 C539.901675,667.494206 539.970826,680.399891 540.240392,684.338259 C536.702348,690.02704 534.322782,695.070072 534.131923,695.785225 C533.758002,697.188121 535.909243,696.440027 535.909243,696.440027 C537.305098,692.455642 539.017793,688.906031 540.852948,685.727827 C552.460597,690.795502 561.979618,686.24659 568.46075,683.326384 C565.001414,684.641017 563.57639,683.372149 559.661156,681.962716 C575.606743,682.139744 581.807497,674.521509 581.45319,669.469676 C581.247244,666.534885 583.040657,662.918387 584.322098,660.836549 C583.839546,661.012068 583.071084,660.799835 580.390017,661.764939" id="Fill-1" sketch:type="MSShapeGroup" transform="translate(562.288588, 675.036445) rotate(23.000000) translate(-562.288588, -675.036445) "></path>
            </g>
        </g>
    </g>
</svg>