<?xml version="1.0" encoding="UTF-8" standalone="no"?>
<svg width="42px" height="30px" viewBox="0 0 42 30" version="1.1" xmlns="http://www.w3.org/2000/svg" xmlns:xlink="http://www.w3.org/1999/xlink" xmlns:sketch="http://www.bohemiancoding.com/sketch/ns">
    <!-- Generator: Sketch 3.1 (8751) - http://www.bohemiancoding.com/sketch -->
    <title>Fill 1</title>
    <desc>Created with Sketch.</desc>
    <defs></defs>
    <g id="Welcome" stroke="none" stroke-width="1" fill="none" fill-rule="evenodd" sketch:type="MSPage">
        <g id="Desktop-HD" sketch:type="MSArtboardGroup" transform="translate(-1343.000000, -2104.000000)" fill="#2C5300">
            <g id="Site-2" sketch:type="MSLayerGroup" transform="translate(1154.637631, 756.325433)">
                <path d="M228.574696,1349.38075 C227.513959,1349.18878 226.499051,1349.01196 225.526003,1348.84921 C200.728868,1344.70009 203.739671,1349.85582 199.336143,1355.48283 C198.700495,1354.72016 199.208941,1354.33874 199.336143,1352.94042 C192.277255,1357.43254 192.326873,1366.69265 192.520292,1369.51851 C189.981668,1373.60034 188.274277,1377.21882 188.137332,1377.73196 C187.869036,1378.73857 189.412598,1378.2018 189.412598,1378.2018 C190.414155,1375.34291 191.64305,1372.79599 192.959814,1370.51556 C201.288556,1374.15173 208.118661,1370.88778 212.769015,1368.79247 C210.286865,1369.73575 209.264379,1368.82531 206.455114,1367.81401 C217.89642,1367.94103 222.345597,1362.47478 222.091373,1358.84998 C221.943603,1356.7442 223.230416,1354.14929 224.149878,1352.65552 C223.803636,1352.78146 223.252248,1352.62918 221.328523,1353.32166 C221.582747,1351.2877 223.871116,1350.65205 228.574696,1349.38075 Z" id="Fill-1" sketch:type="MSShapeGroup" transform="translate(208.340354, 1362.844258) scale(-1, 1) rotate(69.000000) translate(-208.340354, -1362.844258) "></path>
            </g>
        </g>
    </g>
</svg>