<?xml version="1.0" encoding="UTF-8" standalone="no"?>
<svg width="38px" height="42px" viewBox="0 0 38 42" version="1.1" xmlns="http://www.w3.org/2000/svg" xmlns:xlink="http://www.w3.org/1999/xlink" xmlns:sketch="http://www.bohemiancoding.com/sketch/ns">
    <!-- Generator: Sketch 3.1 (8751) - http://www.bohemiancoding.com/sketch -->
    <title>Leaf</title>
    <desc>Created with Sketch.</desc>
    <defs></defs>
    <g id="Welcome" stroke="none" stroke-width="1" fill="none" fill-rule="evenodd" sketch:type="MSPage">
        <g id="Desktop-HD" sketch:type="MSArtboardGroup" transform="translate(-1437.000000, -3363.000000)" fill="#B7A071">
            <g id="Site-2" sketch:type="MSLayerGroup" transform="translate(1154.637631, 756.325433)">
                <g id="Leaf" transform="translate(275.500000, 2604.000000)" sketch:type="MSShapeGroup">
                    <path d="M16.4322229,34.2889731 C17.0179013,34.3483964 17.6013059,34.3891524 18.2044605,34.2012675 C19.7906974,33.7069978 21.2047281,32.8307215 22.7356996,32.2870768 C22.884864,32.1864211 23.0333355,32.091136 23.181114,32.0019145 C21.771068,32.1604342 20.514864,32.0694803 18.1620154,31.9092281 C15.8093399,31.7488026 15.1161842,32.7967654 14.8909649,33.3676096 C14.7416272,33.7452851 14.2787149,34.2691798 13.9828114,34.5798092 C14.2028333,34.4342829 14.4329035,34.3202873 14.6463421,34.2646754 C15.2585921,34.1514594 15.8465444,34.2295499 16.4322229,34.2889731 C15.8465444,34.2295499 15.2585921,34.1514594 14.6463421,34.2646754 C14.4329035,34.3202873 14.2028333,34.4342829 13.9828114,34.5798092 C13.8317412,34.7386754 13.7241557,34.8419298 13.7241557,34.8419298 C14.3305154,34.6735351 14.8448816,35.3339474 15.3481601,35.4534868 C18.3979759,36.0532632 20.6602171,33.6839561 22.7356996,32.2870768 C21.2047281,32.8307215 19.7906974,33.7069978 18.2044605,34.2012675 C17.6013059,34.3891524 17.0179013,34.3483964 16.4322229,34.2889731 Z M7.0826335,24.7239962 C6.88160362,24.5880417 6.67816996,24.427443 6.47850439,24.2500395 C7.02474781,24.9776711 7.8823136,26.1983596 8.17596491,27.0483026 C8.61912719,28.3317061 9.92435965,30.7347961 14.0531491,30.7819189 C18.1821118,30.8286952 20.3859693,30.8422083 22.8812259,31.4258728 C22.6139079,31.2065439 22.3450307,30.9730088 22.0740746,30.728386 C19.3347149,29.2840373 16.7737982,27.1340592 13.9412325,25.7879408 C12.8642511,25.2762599 11.8405428,25.2668613 10.8143224,25.2978506 C11.8405428,25.2668613 12.8642511,25.2762599 13.9412325,25.7879408 C16.7737982,27.1340592 19.3347149,29.2840373 22.0740746,30.728386 C18.3066754,27.3310395 14.1314561,21.7800768 8.81108333,22.5742346 C7.93463377,22.7504254 7.08313158,24.1045132 6.00207895,23.6346711 C6.00207895,23.6346711 6.19975219,23.8782544 6.47850439,24.2500395 C6.67816996,24.427443 6.88160362,24.5880417 7.0826335,24.7239962 L7.0826335,24.7239962 Z M16.5580208,11.0128618 C16.5200367,10.7192538 16.5026689,10.4034704 16.5037083,10.0775088 C16.2793553,11.165318 15.8557697,12.9365811 15.3161096,13.8927237 C14.500989,15.3365526 13.3580877,18.4738575 16.646636,22.2807566 C19.9353575,26.0874825 21.7010768,28.1102982 23.181114,30.8605724 C23.1658684,30.4390658 23.162057,30.0043925 23.1670811,29.5591513 C22.2765987,25.8891162 22.1750768,21.810568 21.1196645,18.134989 C20.718341,16.7375033 19.9009249,15.795437 19.0445935,14.8837969 C19.9009249,15.795437 20.718341,16.7375033 21.1196645,18.134989 C22.1750768,21.810568 22.2765987,25.8891162 23.1670811,29.5591513 C23.231875,23.3692588 24.9353991,15.0635175 19.9171667,10.8498377 C19.0490329,10.1925439 17.1244474,10.5118355 16.6816316,9.14423465 C16.6816316,9.14423465 16.6183969,9.52208333 16.5037083,10.0775088 C16.5026689,10.4034704 16.5200367,10.7192538 16.5580208,11.0128618 L16.5580208,11.0128618 Z M43.8112018,24.9913141 C44.0863158,24.9593503 44.3778015,24.9476129 44.6751776,24.9537632 C43.7240592,24.7205746 42.1865044,24.2850351 41.4146952,23.7505724 C40.2492719,22.9430746 37.599307,21.7935899 33.5089781,24.9005768 C29.4184759,28.0077368 27.2414715,29.6764386 24.4539496,31.0587654 C24.8413268,31.0506228 25.2389254,31.0537412 25.6444934,31.0655219 C29.1612061,30.2654737 32.9033114,30.2311711 36.4560592,29.2724298 C37.8068553,28.9078344 38.8197791,28.1355055 39.8122166,27.3252141 C38.8197791,28.1355055 37.8068553,28.9078344 36.4560592,29.2724298 C32.9033114,30.2311711 29.1612061,30.2654737 25.6444934,31.0655219 C31.2825987,31.2247346 38.5455746,32.9944386 43.3311382,28.2282785 C44.0937654,27.4027632 44.1625439,25.5447039 45.4937632,25.1394825 C45.4937632,25.1394825 45.1606118,25.0727829 44.6751776,24.9537632 C44.3778015,24.9476129 44.0863158,24.9593503 43.8112018,24.9913141 L43.8112018,24.9913141 Z M35.8027283,7.24481305 C36.0085225,6.97134485 36.2419276,6.70467654 36.492614,6.45147807 C35.5425351,7.0387807 33.9665197,7.92718421 32.9559781,8.04377851 C31.4298575,8.21979605 28.4361732,9.33515132 27.2035307,16.1440504 C25.9708882,22.9529496 25.325375,26.5921469 23.9752719,30.4662654 C24.2904057,30.1196009 24.6221711,29.7758816 24.9664101,29.4338947 C27.3248026,25.5301513 30.4016447,22.2279167 32.6798246,18.127193 C33.5460526,16.5679825 33.8492325,14.8788377 34.1091009,13.1680373 C33.8492325,14.8788377 33.5460526,16.5679825 32.6798246,18.127193 C30.4016447,22.2279167 27.3248026,25.5301513 24.9664101,29.4338947 C29.7485088,24.6779561 36.9946798,20.181886 37.6518004,11.0372895 C37.7105307,9.51116886 36.4778882,7.51503289 37.2995921,5.93035526 C37.2995921,5.93035526 36.9773553,6.1519364 36.492614,6.45147807 C36.2419276,6.70467654 36.0085225,6.97134485 35.8027283,7.24481305 L35.8027283,7.24481305 Z M17.2770768,42.0272917 C17.0194605,42.9938289 18.5015768,42.4784232 18.5015768,42.4784232 C21.4280417,35.4292325 22.1419868,34.5798092 23.2876601,32.0871513 C18.6715307,38.3683443 17.5348662,41.0607544 17.2770768,42.0272917 Z M37.3233268,38.5978947 C37.6530132,38.7591864 37.9988114,39.0308355 38.3226075,39.357057 C37.9082039,38.7103311 37.2668487,37.6299715 37.0982807,36.9026864 C36.8439561,35.8039627 35.9321645,33.708557 32.1550636,33.3352127 C28.3777895,32.9622149 26.3601711,32.772511 24.1429737,32.0871513 C24.3619561,32.2903684 24.5809386,32.5053662 24.8000943,32.7298925 C27.1392566,34.1477346 29.2311974,36.1353816 31.6672039,37.4792478 C33.5197193,38.5010504 35.4143333,37.8418509 37.3233268,38.5978947 Z M38.6864232,39.9050329 C38.6864232,39.9050329 38.5341404,39.6874364 38.3226075,39.357057 C37.9988114,39.0308355 37.6530132,38.7591864 37.3233268,38.5978947 C35.4143333,37.8418509 33.5197193,38.5010504 31.6672039,37.4792478 C29.2311974,36.1353816 27.1392566,34.1477346 24.8000943,32.7298925 C27.8500833,35.8481404 31.0192654,40.7825219 35.9874298,40.5557434 C36.8110395,40.4807281 37.7514167,39.4286075 38.6864232,39.9050329 Z M26.2894868,40.7364386 C26.3556667,40.946932 26.3809605,41.2024693 26.3743772,41.4663224 C26.4805768,41.0505329 26.678943,40.3802456 26.9201009,40.0531579 C27.2842632,39.5594079 27.8048662,38.4158136 26.4206338,36.5068202 C25.0362281,34.5974803 24.2926579,33.5810482 23.6788487,32.3016294 C23.6817939,32.4743553 23.6795417,32.6507193 23.6734781,32.8305482 C24.0248202,34.4166118 24.0326162,36.0802895 24.4551623,37.6869693 C24.7767061,38.9088706 25.8317719,39.5784649 26.2894868,40.7364386 Z M26.2894868,41.8244211 C26.2894868,41.8244211 26.3199781,41.678375 26.3743772,41.4663224 C26.3809605,41.2024693 26.3556667,40.946932 26.2894868,40.7364386 C25.8317719,39.5784649 24.7767061,38.9088706 24.4551623,37.6869693 C24.0326162,36.0802895 24.0248202,34.4166118 23.6734781,32.8305482 C23.5906667,35.3310022 22.7828224,38.5055548 24.9094123,40.7724737 C25.2777325,41.1357697 26.1105241,41.2211798 26.2894868,41.8244211 Z" id="Fill-1" transform="translate(25.747921, 24.273028) rotate(-23.000000) translate(-25.747921, -24.273028) "></path>
                </g>
            </g>
        </g>
    </g>
</svg>