<?xml version="1.0" encoding="UTF-8" standalone="no"?>
<svg width="135px" height="41px" viewBox="0 0 135 41" version="1.1" xmlns="http://www.w3.org/2000/svg" xmlns:xlink="http://www.w3.org/1999/xlink" xmlns:sketch="http://www.bohemiancoding.com/sketch/ns">
    <!-- Generator: Sketch 3.1 (8751) - http://www.bohemiancoding.com/sketch -->
    <title>Spotify</title>
    <desc>Created with Sketch.</desc>
    <defs></defs>
    <g id="Welcome" stroke="none" stroke-width="1" fill="none" fill-rule="evenodd" sketch:type="MSPage">
        <g id="Desktop-HD" sketch:type="MSArtboardGroup" transform="translate(-1431.000000, -59.000000)" fill="#B7A071">
            <g id="Header" sketch:type="MSLayerGroup" transform="translate(1227.637631, 59.096667)">
                <g id="Spotify" transform="translate(204.000000, 0.000000)" sketch:type="MSShapeGroup">
                    <path d="M31.8499982,17.7724623 C25.3991131,13.9511558 14.7588706,13.599799 8.60077707,15.4641206 C7.61177436,15.7634171 6.56614781,15.2064322 6.26650498,14.2201005 C5.96666063,13.2331658 6.5244356,12.1907538 7.51404284,11.8908543 C14.5831554,9.75035176 26.3343131,10.1640201 33.7606998,14.561206 C34.6501575,15.0878392 34.9419415,16.2337688 34.4145943,17.119598 C33.8870456,18.0068342 32.7372392,18.2992965 31.8499982,17.7724623 L31.8499982,17.7724623 Z M31.6388175,23.4323618 C31.1862299,24.1650251 30.2260428,24.3945729 29.4925526,23.9449246 C24.1146992,20.6474372 15.9139161,19.6920603 9.5512917,21.6186935 C8.72611523,21.8673367 7.85459186,21.4032161 7.60411704,20.5819095 C7.35545581,19.758794 7.82073846,18.8910553 8.64450437,18.640804 C15.9129086,16.440804 24.9485406,17.5063317 31.1253744,21.2928643 C31.8588646,21.7433166 32.0897931,22.7015075 31.6388175,23.4323618 L31.6388175,23.4323618 Z M29.1898872,28.8681407 C28.8303964,29.4562814 28.0624483,29.640603 27.4750516,29.2822111 C22.7754751,26.4170854 16.8606021,25.7700503 9.89446033,27.3573869 C9.2232362,27.5107538 8.55422866,27.0910553 8.40108235,26.4217085 C8.24733152,25.7521608 8.66646878,25.0848241 9.33930498,24.9320603 C16.9623638,23.1937688 23.501308,23.9417085 28.7761906,27.1569849 C29.3643934,27.5153769 29.5495795,28.281608 29.1898872,28.8681407 L29.1898872,28.8681407 Z M20.0121919,0.0755778894 C8.95986486,0.0755778894 -2.27373675e-13,9.01286432 -2.27373675e-13,20.0375879 C-2.27373675e-13,31.0631156 8.95986486,40 20.0121919,40 C31.0649219,40 40.0243837,31.0631156 40.0243837,20.0375879 C40.0243837,9.01286432 31.0649219,0.0755778894 20.0121919,0.0755778894 L20.0121919,0.0755778894 Z M54.4461309,18.5041206 C50.9910697,17.6822111 50.3756633,17.1053266 50.3756633,15.8932663 C50.3756633,14.7481407 51.4565538,13.9776884 53.0639855,13.9776884 C54.6220477,13.9776884 56.1668103,14.5628141 57.7867354,15.7676382 C57.8359035,15.8040201 57.897162,15.8186935 57.9576145,15.8090452 C58.018067,15.800201 58.0716682,15.7670352 58.1069321,15.7169849 L59.7941611,13.3447236 C59.8634799,13.2470352 59.8445382,13.1123618 59.7512398,13.0377889 C57.82341,11.4946734 55.6525611,10.7445226 53.1151686,10.7445226 C49.3842425,10.7445226 46.7785388,12.9778894 46.7785388,16.1732663 C46.7785388,19.6 49.0263638,20.8130653 52.9110407,21.7497487 C56.2173888,22.5093467 56.7755668,23.1457286 56.7755668,24.2838191 C56.7755668,25.5445226 55.6471204,26.3282412 53.8313291,26.3282412 C51.8144326,26.3282412 50.1693189,25.6504523 48.3289436,24.0609045 C48.2832012,24.0217085 48.2207336,24.0036181 48.1629008,24.0070352 C48.1020452,24.0120603 48.046429,24.040201 48.0075379,24.0866332 L46.1159795,26.3322613 C46.0365852,26.4255276 46.0466606,26.5646231 46.1383469,26.6454271 C48.2795741,28.5521608 50.9128845,29.559397 53.754756,29.559397 C57.775048,29.559397 60.3726914,27.3680402 60.3726914,23.9766834 C60.3726914,21.1105528 58.6560422,19.5254271 54.4461309,18.5041206 M72.386616,22.3455276 C72.386616,24.7656281 70.892029,26.4544724 68.7522124,26.4544724 C66.6363753,26.4544724 65.0406311,24.6888442 65.0406311,22.3455276 C65.0406311,20.0024121 66.6363753,18.2365829 68.7522124,18.2365829 C70.857571,18.2365829 72.386616,19.9642211 72.386616,22.3455276 L72.386616,22.3455276 Z M69.4681713,15.1049246 C67.7257291,15.1049246 66.2964308,15.7895477 65.1176072,17.1923618 L65.1176072,15.6132663 C65.1176072,15.4888442 65.0162486,15.3871357 64.8915149,15.3871357 L61.7977581,15.3871357 C61.6728229,15.3871357 61.5716658,15.4888442 61.5716658,15.6132663 L61.5716658,33.158191 C61.5716658,33.2828141 61.6728229,33.3843216 61.7977581,33.3843216 L64.8915149,33.3843216 C65.0162486,33.3843216 65.1176072,33.2828141 65.1176072,33.158191 L65.1176072,27.6201005 C66.2966323,28.9398995 67.7261321,29.5845226 69.4681713,29.5845226 C72.7062081,29.5845226 75.9837406,27.0982915 75.9837406,22.3455276 C75.9837406,17.5917588 72.7062081,15.1049246 69.4681713,15.1049246 L69.4681713,15.1049246 Z M84.385629,26.479799 C82.1676271,26.479799 80.4955113,24.7023116 80.4955113,22.3455276 C80.4955113,19.9788945 82.1097943,18.2613065 84.3344459,18.2613065 C86.5665532,18.2613065 88.2499535,20.038794 88.2499535,22.3971859 C88.2499535,24.7634171 86.6247891,26.479799 84.385629,26.479799 L84.385629,26.479799 Z M84.385629,15.1049246 C80.2156163,15.1049246 76.9489653,18.3077387 76.9489653,22.3971859 C76.9489653,26.4422111 80.1932489,29.6112563 84.3344459,29.6112563 C88.5189671,29.6112563 91.7956935,26.4192965 91.7956935,22.3455276 C91.7956935,18.2852261 88.541536,15.1049246 84.385629,15.1049246 Z M100.700144,15.3871357 L97.2956609,15.3871357 L97.2956609,11.9149749 C97.2956609,11.7903518 97.1947053,11.6888442 97.0697701,11.6888442 L93.9762148,11.6888442 C93.8510781,11.6888442 93.7493164,11.7903518 93.7493164,11.9149749 L93.7493164,15.3871357 L92.2615807,15.3871357 C92.1370486,15.3871357 92.0362944,15.4888442 92.0362944,15.6132663 L92.0362944,18.2657286 C92.0362944,18.3901508 92.1370486,18.4918593 92.2615807,18.4918593 L93.7493164,18.4918593 L93.7493164,25.3549749 C93.7493164,28.1284422 95.1330739,29.5346734 97.8625038,29.5346734 C98.97221,29.5346734 99.8931029,29.3061307 100.760798,28.8150754 C100.831325,28.7758794 100.875254,28.7001005 100.875254,28.6194975 L100.875254,26.0936683 C100.875254,26.0158794 100.834348,25.9423116 100.767649,25.9013065 C100.700144,25.8590955 100.616316,25.8570854 100.5474,25.8912563 C99.9513388,26.1903518 99.375025,26.3282412 98.731206,26.3282412 C97.7385762,26.3282412 97.2956609,25.878794 97.2956609,24.8711558 L97.2956609,18.4918593 L100.700144,18.4918593 C100.82528,18.4918593 100.926034,18.3901508 100.926034,18.2657286 L100.926034,15.6132663 C100.926034,15.4888442 100.82528,15.3871357 100.700144,15.3871357 Z M112.562131,15.400603 L112.562131,14.9742714 C112.562131,13.719598 113.044139,13.160201 114.125835,13.160201 C114.770863,13.160201 115.288941,13.2880402 115.869285,13.481005 C115.940619,13.5035176 116.015177,13.4922613 116.073211,13.4496482 C116.132858,13.4070352 116.166711,13.3384925 116.166711,13.2661307 L116.166711,10.6655276 C116.166711,10.5660302 116.102632,10.4779899 116.006714,10.4488442 C115.393725,10.2669347 114.609657,10.080201 113.435266,10.080201 C110.577476,10.080201 109.067171,11.6854271 109.067171,14.720603 L109.067171,15.3736683 L107.580846,15.3736683 C107.456112,15.3736683 107.353746,15.4751759 107.353746,15.599799 L107.353746,18.2657286 C107.353746,18.3901508 107.456112,18.4918593 107.580846,18.4918593 L109.067171,18.4918593 L109.067171,29.0777889 C109.067171,29.2024121 109.167925,29.3039196 109.292659,29.3039196 L112.386617,29.3039196 C112.511552,29.3039196 112.613314,29.2024121 112.613314,29.0777889 L112.613314,18.4918593 L115.501935,18.4918593 L119.926856,29.0749749 C119.424496,30.1871357 118.930599,30.4082412 118.256151,30.4082412 C117.711071,30.4082412 117.137175,30.2460302 116.550383,29.9256281 C116.494968,29.8954774 116.42968,29.8902513 116.370033,29.9087437 C116.310991,29.9294472 116.261219,29.9732663 116.236232,30.0305528 L115.187583,32.3254271 C115.137608,32.4337688 115.180328,32.561206 115.284911,32.6174874 C116.379706,33.2088442 117.367902,33.4613065 118.589244,33.4613065 C120.873744,33.4613065 122.136395,32.399799 123.249728,29.5439196 L128.617103,15.7087437 C128.644105,15.639196 128.636045,15.560603 128.593325,15.4988945 C128.550807,15.4375879 128.482294,15.400603 128.407131,15.400603 L125.186424,15.400603 C125.090103,15.400603 125.003656,15.4617085 124.972221,15.5521608 L121.672724,24.9531658 L118.058673,15.5459296 C118.025625,15.4584925 117.941193,15.400603 117.84729,15.400603 L112.562131,15.400603 Z M105.685459,15.3871357 L102.5915,15.3871357 C102.466565,15.3871357 102.364804,15.4888442 102.364804,15.6132663 L102.364804,29.0777889 C102.364804,29.2024121 102.466565,29.3039196 102.5915,29.3039196 L105.685459,29.3039196 C105.810192,29.3039196 105.912156,29.2024121 105.912156,29.0777889 L105.912156,15.6132663 C105.912156,15.4888442 105.810192,15.3871357 105.685459,15.3871357 Z M104.154197,9.25648241 C102.928624,9.25648241 101.933777,10.2462312 101.933777,11.4689447 C101.933777,12.6922613 102.928624,13.6830151 104.154197,13.6830151 C105.379368,13.6830151 106.373005,12.6922613 106.373005,11.4689447 C106.373005,10.2462312 105.379368,9.25648241 104.154197,9.25648241 Z M131.385424,16.7264322 L130.818379,16.7264322 L130.818379,17.4476382 L131.385424,17.4476382 C131.668341,17.4476382 131.837205,17.3095477 131.837205,17.0868342 C131.837205,16.8522613 131.668341,16.7264322 131.385424,16.7264322 L131.385424,16.7264322 Z M131.752773,17.7551759 L132.368784,18.6152764 L131.849497,18.6152764 L131.295148,17.8263317 L130.818379,17.8263317 L130.818379,18.6152764 L130.383726,18.6152764 L130.383726,16.3354774 L131.402955,16.3354774 C131.933728,16.3354774 132.283143,16.6064322 132.283143,17.0627136 C132.283143,17.4363819 132.066723,17.6647236 131.752773,17.7551759 L131.752773,17.7551759 Z M131.270161,15.5768844 C130.154813,15.5768844 129.310896,16.4611055 129.310896,17.5441206 C129.310896,18.6265327 130.148767,19.4988945 131.258675,19.4988945 C132.373621,19.4988945 133.218343,18.6152764 133.218343,17.5316583 C133.218343,16.4494472 132.379867,15.5768844 131.270161,15.5768844 L131.270161,15.5768844 Z M131.258675,19.7161809 C130.034311,19.7161809 129.081378,18.7352764 129.081378,17.5441206 C129.081378,16.3529648 130.046603,15.360804 131.270161,15.360804 C132.494525,15.360804 133.447257,16.3415075 133.447257,17.5316583 C133.447257,18.7230151 132.482838,19.7161809 131.258675,19.7161809 L131.258675,19.7161809 Z" id="Fill-1"></path>
                </g>
            </g>
        </g>
    </g>
</svg>